<?xml version="1.0" encoding="utf-8"?>
<svg xmlns="http://www.w3.org/2000/svg" width="960px" height="172.8px" viewBox="0 0 720 129.6" xmlns:bx="https://boxy-svg.com"><defs><clipPath id="clippath0" transform=""><path d="M 0 129.6000061035 L 720 129.6000061035 L 720 0 L 0 0" style="fill: none; clip-rule: nonzero;"/></clipPath></defs><g class="page-1" transform="matrix(1, 0, 0, -1, 0, 129.6)"><g transform=""><path d="M 0 129.6000061035 L 720 129.6000061035 L 720 0 L 0 0" style="fill: none;"/></g><g style="clip-path: url(&quot;#clippath0&quot;);"><g transform=""><path d="M 0.076 -0.001 L 0.076 -0.682 L 0.306 -0.682 Q 0.445 -0.682 0.526 -0.64 Q 0.607 -0.599 0.655 -0.518 Q 0.703 -0.437 0.703 -0.341 Q 0.703 -0.272 0.677 -0.21 Q 0.65 -0.147 0.602 -0.1 Q 0.552 -0.051 0.486 -0.026 Q 0.447 -0.011 0.415 -0.006 Q 0.383 -0.001 0.292 -0.001 Z M 0.296 -0.595 L 0.174 -0.595 L 0.174 -0.088 L 0.299 -0.088 Q 0.372 -0.088 0.413 -0.098 Q 0.453 -0.108 0.48 -0.123 Q 0.507 -0.139 0.53 -0.161 Q 0.602 -0.234 0.602 -0.346 Q 0.602 -0.456 0.528 -0.525 Q 0.5 -0.551 0.465 -0.568 Q 0.43 -0.584 0.398 -0.59 Q 0.366 -0.595 0.296 -0.595 Z M 0.691 -0.001 L 0.691 -0.682 L 0.921 -0.682 Q 1.06 -0.682 1.141 -0.64 Q 1.222 -0.599 1.27 -0.518 Q 1.318 -0.437 1.318 -0.341 Q 1.318 -0.272 1.292 -0.21 Q 1.265 -0.147 1.217 -0.1 Q 1.167 -0.051 1.101 -0.026 Q 1.062 -0.011 1.03 -0.006 Q 0.998 -0.001 0.907 -0.001 Z M 0.911 -0.595 L 0.789 -0.595 L 0.789 -0.088 L 0.914 -0.088 Q 0.987 -0.088 1.028 -0.098 Q 1.068 -0.108 1.095 -0.123 Q 1.122 -0.139 1.145 -0.161 Q 1.217 -0.234 1.217 -0.346 Q 1.217 -0.456 1.143 -0.525 Q 1.115 -0.551 1.08 -0.568 Q 1.045 -0.584 1.013 -0.59 Q 0.981 -0.595 0.911 -0.595 Z M 1.848 -0.682 L 1.939 -0.682 L 1.939 0 L 1.841 0 L 1.841 -0.531 L 1.631 -0.267 L 1.613 -0.267 L 1.401 -0.531 L 1.401 0 L 1.303 0 L 1.303 -0.682 L 1.395 -0.682 L 1.622 -0.402 Z M 2.169 -0.686 L 2.238 -0.686 L 2.543 0 L 2.443 0 L 2.352 -0.202 L 2.062 -0.202 L 1.976 0 L 1.876 0 Z M 2.312 -0.289 L 2.202 -0.536 L 2.1 -0.289 Z M 2.483 -0.682 L 2.581 -0.682 L 2.581 -0.089 L 2.888 -0.089 L 2.888 0 L 2.483 0 Z" transform="matrix(72, 0, 0, -72, 50.809101, 40.388199)" style="fill: rgb(41, 43, 43); text-wrap-mode: nowrap;"/><path d="M 0.076 -0.001 L 0.076 -0.682 L 0.306 -0.682 Q 0.445 -0.682 0.526 -0.64 Q 0.607 -0.599 0.655 -0.518 Q 0.703 -0.437 0.703 -0.341 Q 0.703 -0.272 0.677 -0.21 Q 0.65 -0.147 0.602 -0.1 Q 0.552 -0.051 0.486 -0.026 Q 0.447 -0.011 0.415 -0.006 Q 0.383 -0.001 0.292 -0.001 Z M 0.296 -0.595 L 0.174 -0.595 L 0.174 -0.088 L 0.299 -0.088 Q 0.372 -0.088 0.413 -0.098 Q 0.453 -0.108 0.48 -0.123 Q 0.507 -0.139 0.53 -0.161 Q 0.602 -0.234 0.602 -0.346 Q 0.602 -0.456 0.528 -0.525 Q 0.5 -0.551 0.465 -0.568 Q 0.43 -0.584 0.398 -0.59 Q 0.366 -0.595 0.296 -0.595 Z M 0.801 -0.682 L 0.899 -0.682 L 0.899 0 L 0.801 0 Z M 1.194 -0.286 L 1.12 -0.331 Q 1.05 -0.374 1.021 -0.415 Q 0.991 -0.456 0.991 -0.51 Q 0.991 -0.59 1.047 -0.641 Q 1.103 -0.691 1.192 -0.691 Q 1.278 -0.691 1.349 -0.643 L 1.349 -0.532 Q 1.275 -0.603 1.19 -0.603 Q 1.142 -0.603 1.112 -0.581 Q 1.081 -0.559 1.081 -0.524 Q 1.081 -0.493 1.103 -0.466 Q 1.126 -0.439 1.176 -0.41 L 1.251 -0.366 Q 1.376 -0.292 1.376 -0.177 Q 1.376 -0.095 1.321 -0.043 Q 1.266 0.008 1.178 0.008 Q 1.077 0.008 0.994 -0.054 L 0.994 -0.178 Q 1.073 -0.078 1.177 -0.078 Q 1.223 -0.078 1.253 -0.104 Q 1.284 -0.129 1.284 -0.168 Q 1.284 -0.23 1.194 -0.286 Z M 1.4 -0.683 L 1.97 -0.683 L 1.97 -0.596 L 1.732 -0.596 L 1.732 0 L 1.634 0 L 1.634 -0.596 L 1.4 -0.596 Z M 2.04 0 L 2.04 -0.682 L 2.211 -0.682 Q 2.315 -0.682 2.375 -0.631 Q 2.436 -0.58 2.436 -0.492 Q 2.436 -0.433 2.406 -0.389 Q 2.377 -0.346 2.321 -0.324 Q 2.354 -0.303 2.385 -0.266 Q 2.416 -0.229 2.473 -0.136 Q 2.508 -0.078 2.53 -0.049 L 2.566 0 L 2.45 0 L 2.42 -0.045 Q 2.419 -0.047 2.414 -0.053 L 2.395 -0.08 L 2.365 -0.13 L 2.332 -0.183 Q 2.302 -0.225 2.277 -0.25 Q 2.252 -0.275 2.231 -0.286 Q 2.211 -0.297 2.163 -0.297 L 2.138 -0.297 L 2.138 0 Z M 2.167 -0.599 L 2.138 -0.599 L 2.138 -0.384 L 2.175 -0.384 Q 2.249 -0.384 2.277 -0.396 Q 2.304 -0.409 2.32 -0.435 Q 2.335 -0.46 2.335 -0.493 Q 2.335 -0.525 2.318 -0.552 Q 2.301 -0.578 2.27 -0.588 Q 2.239 -0.599 2.167 -0.599 Z M 2.617 -0.682 L 2.715 -0.682 L 2.715 0 L 2.617 0 Z M 3.072 0 L 2.841 0 L 2.841 -0.682 L 3.02 -0.682 Q 3.104 -0.682 3.152 -0.659 Q 3.199 -0.637 3.224 -0.597 Q 3.249 -0.557 3.249 -0.505 Q 3.249 -0.404 3.145 -0.361 Q 3.22 -0.347 3.264 -0.299 Q 3.308 -0.252 3.308 -0.186 Q 3.308 -0.134 3.281 -0.093 Q 3.254 -0.052 3.202 -0.026 Q 3.15 0 3.072 0 Z M 3.023 -0.595 L 2.939 -0.595 L 2.939 -0.39 L 3.004 -0.39 Q 3.082 -0.39 3.115 -0.42 Q 3.148 -0.45 3.148 -0.497 Q 3.148 -0.595 3.023 -0.595 Z M 3.03 -0.303 L 2.939 -0.303 L 2.939 -0.087 L 3.035 -0.087 Q 3.115 -0.087 3.144 -0.099 Q 3.172 -0.112 3.19 -0.138 Q 3.207 -0.165 3.207 -0.195 Q 3.207 -0.226 3.189 -0.252 Q 3.17 -0.278 3.137 -0.291 Q 3.103 -0.303 3.03 -0.303 Z M 3.854 -0.682 L 3.952 -0.682 L 3.952 -0.295 Q 3.952 -0.216 3.94 -0.176 Q 3.929 -0.136 3.912 -0.11 Q 3.895 -0.083 3.871 -0.062 Q 3.79 0.008 3.659 0.008 Q 3.526 0.008 3.445 -0.062 Q 3.421 -0.083 3.404 -0.11 Q 3.387 -0.136 3.376 -0.175 Q 3.365 -0.213 3.365 -0.296 L 3.365 -0.682 L 3.463 -0.682 L 3.463 -0.295 Q 3.463 -0.199 3.485 -0.161 Q 3.507 -0.124 3.552 -0.101 Q 3.597 -0.078 3.658 -0.078 Q 3.745 -0.078 3.8 -0.124 Q 3.828 -0.148 3.841 -0.181 Q 3.854 -0.214 3.854 -0.295 Z M 4.004 -0.683 L 4.574 -0.683 L 4.574 -0.596 L 4.336 -0.596 L 4.336 0 L 4.238 0 L 4.238 -0.596 L 4.004 -0.596 Z M 4.641 -0.682 L 5.028 -0.682 L 5.028 -0.595 L 4.739 -0.595 L 4.739 -0.387 L 5.018 -0.387 L 5.018 -0.3 L 4.739 -0.3 L 4.739 -0.088 L 5.037 -0.088 L 5.037 -0.001 L 4.641 -0.001 Z M 5.117 -0.001 L 5.117 -0.682 L 5.347 -0.682 Q 5.486 -0.682 5.567 -0.64 Q 5.648 -0.599 5.696 -0.518 Q 5.744 -0.437 5.744 -0.341 Q 5.744 -0.272 5.718 -0.21 Q 5.691 -0.147 5.643 -0.1 Q 5.593 -0.051 5.527 -0.026 Q 5.488 -0.011 5.456 -0.006 Q 5.424 -0.001 5.333 -0.001 Z M 5.337 -0.595 L 5.215 -0.595 L 5.215 -0.088 L 5.34 -0.088 Q 5.413 -0.088 5.454 -0.098 Q 5.494 -0.108 5.521 -0.123 Q 5.548 -0.139 5.571 -0.161 Q 5.643 -0.234 5.643 -0.346 Q 5.643 -0.456 5.569 -0.525 Q 5.541 -0.551 5.506 -0.568 Q 5.471 -0.584 5.439 -0.59 Q 5.407 -0.595 5.337 -0.595 Z M 6.095 -0.001 L 6.095 -0.682 L 6.325 -0.682 Q 6.464 -0.682 6.545 -0.64 Q 6.626 -0.599 6.674 -0.518 Q 6.722 -0.437 6.722 -0.341 Q 6.722 -0.272 6.696 -0.21 Q 6.669 -0.147 6.621 -0.1 Q 6.571 -0.051 6.505 -0.026 Q 6.466 -0.011 6.434 -0.006 Q 6.402 -0.001 6.311 -0.001 Z M 6.315 -0.595 L 6.193 -0.595 L 6.193 -0.088 L 6.318 -0.088 Q 6.391 -0.088 6.432 -0.098 Q 6.472 -0.108 6.499 -0.123 Q 6.526 -0.139 6.549 -0.161 Q 6.621 -0.234 6.621 -0.346 Q 6.621 -0.456 6.547 -0.525 Q 6.519 -0.551 6.484 -0.568 Q 6.449 -0.584 6.417 -0.59 Q 6.385 -0.595 6.315 -0.595 Z M 6.82 -0.682 L 6.918 -0.682 L 6.918 0 L 6.82 0 Z M 7.413 -0.336 L 7.642 -0.336 L 7.642 -0.047 Q 7.516 0.008 7.392 0.008 Q 7.222 0.008 7.121 -0.091 Q 7.02 -0.19 7.02 -0.335 Q 7.02 -0.488 7.125 -0.589 Q 7.23 -0.691 7.388 -0.691 Q 7.446 -0.691 7.497 -0.678 Q 7.549 -0.666 7.628 -0.633 L 7.628 -0.533 Q 7.506 -0.604 7.386 -0.604 Q 7.274 -0.604 7.198 -0.528 Q 7.121 -0.452 7.121 -0.341 Q 7.121 -0.225 7.198 -0.151 Q 7.274 -0.077 7.395 -0.077 Q 7.453 -0.077 7.535 -0.104 L 7.544 -0.107 L 7.544 -0.249 L 7.413 -0.249 Z M 7.76 -0.682 L 7.858 -0.682 L 7.858 0 L 7.76 0 Z M 7.926 -0.683 L 8.496 -0.683 L 8.496 -0.596 L 8.258 -0.596 L 8.258 0 L 8.16 0 L 8.16 -0.596 L 7.926 -0.596 Z M 8.681 -0.686 L 8.75 -0.686 L 9.055 0 L 8.955 0 L 8.864 -0.202 L 8.574 -0.202 L 8.488 0 L 8.388 0 Z M 8.824 -0.289 L 8.714 -0.536 L 8.612 -0.289 Z M 9.105 -0.682 L 9.203 -0.682 L 9.203 -0.089 L 9.51 -0.089 L 9.51 0 L 9.105 0 Z M 10.366 -0.682 L 10.457 -0.682 L 10.457 0 L 10.359 0 L 10.359 -0.531 L 10.149 -0.267 L 10.131 -0.267 L 9.919 -0.531 L 9.919 0 L 9.821 0 L 9.821 -0.682 L 9.913 -0.682 L 10.14 -0.402 Z M 11.054 -0.682 L 11.152 -0.682 L 11.152 -0.295 Q 11.152 -0.216 11.14 -0.176 Q 11.129 -0.136 11.112 -0.11 Q 11.095 -0.083 11.071 -0.062 Q 10.99 0.008 10.859 0.008 Q 10.726 0.008 10.645 -0.062 Q 10.621 -0.083 10.604 -0.11 Q 10.587 -0.136 10.576 -0.175 Q 10.565 -0.213 10.565 -0.296 L 10.565 -0.682 L 10.663 -0.682 L 10.663 -0.295 Q 10.663 -0.199 10.685 -0.161 Q 10.707 -0.124 10.752 -0.101 Q 10.797 -0.078 10.858 -0.078 Q 10.945 -0.078 11 -0.124 Q 11.028 -0.148 11.041 -0.181 Q 11.054 -0.214 11.054 -0.295 Z M 11.431 -0.286 L 11.357 -0.331 Q 11.287 -0.374 11.258 -0.415 Q 11.228 -0.456 11.228 -0.51 Q 11.228 -0.59 11.284 -0.641 Q 11.34 -0.691 11.429 -0.691 Q 11.515 -0.691 11.586 -0.643 L 11.586 -0.532 Q 11.512 -0.603 11.427 -0.603 Q 11.379 -0.603 11.349 -0.581 Q 11.318 -0.559 11.318 -0.524 Q 11.318 -0.493 11.34 -0.466 Q 11.363 -0.439 11.413 -0.41 L 11.488 -0.366 Q 11.613 -0.292 11.613 -0.177 Q 11.613 -0.095 11.558 -0.043 Q 11.503 0.008 11.415 0.008 Q 11.314 0.008 11.231 -0.054 L 11.231 -0.178 Q 11.31 -0.078 11.414 -0.078 Q 11.46 -0.078 11.49 -0.104 Q 11.521 -0.129 11.521 -0.168 Q 11.521 -0.23 11.431 -0.286 Z M 11.696 -0.682 L 11.794 -0.682 L 11.794 0 L 11.696 0 Z M 12.508 -0.158 L 12.508 -0.051 Q 12.401 0.008 12.26 0.008 Q 12.146 0.008 12.066 -0.038 Q 11.987 -0.084 11.94 -0.165 Q 11.894 -0.245 11.894 -0.339 Q 11.894 -0.488 12 -0.589 Q 12.106 -0.691 12.262 -0.691 Q 12.369 -0.691 12.501 -0.635 L 12.501 -0.53 Q 12.381 -0.598 12.267 -0.598 Q 12.15 -0.598 12.072 -0.524 Q 11.995 -0.45 11.995 -0.339 Q 11.995 -0.227 12.071 -0.154 Q 12.147 -0.082 12.266 -0.082 Q 12.39 -0.082 12.508 -0.158 Z" transform="matrix(30, 0, 0, -30, 291.3638, 69.088898)" style="fill: rgb(41, 43, 43); text-wrap-mode: nowrap;"/><path d="M 0.293 0.281 L 0.362 0.281 L 0.667 0.967 L 0.567 0.967 L 0.476 0.765 L 0.186 0.765 L 0.1 0.967 L 0 0.967 Z M 0.436 0.678 L 0.326 0.431 L 0.224 0.678 Z M 0.72 0.967 L 0.72 0.285 L 0.891 0.285 Q 0.995 0.285 1.055 0.336 Q 1.116 0.387 1.116 0.475 Q 1.116 0.534 1.086 0.578 Q 1.057 0.621 1.001 0.643 Q 1.034 0.664 1.065 0.701 Q 1.096 0.738 1.153 0.831 Q 1.188 0.889 1.21 0.918 L 1.246 0.967 L 1.13 0.967 L 1.1 0.922 Q 1.099 0.92 1.094 0.914 L 1.075 0.887 L 1.045 0.837 L 1.012 0.784 Q 0.982 0.742 0.957 0.717 Q 0.932 0.692 0.911 0.681 Q 0.891 0.67 0.843 0.67 L 0.818 0.67 L 0.818 0.967 Z M 0.847 0.368 L 0.818 0.368 L 0.818 0.583 L 0.855 0.583 Q 0.929 0.583 0.957 0.571 Q 0.984 0.558 1 0.532 Q 1.015 0.507 1.015 0.474 Q 1.015 0.442 0.998 0.415 Q 0.981 0.389 0.95 0.379 Q 0.919 0.368 0.847 0.368 Z M 1.884 0.809 L 1.884 0.916 Q 1.777 0.975 1.636 0.975 Q 1.522 0.975 1.442 0.929 Q 1.363 0.883 1.316 0.802 Q 1.27 0.722 1.27 0.628 Q 1.27 0.479 1.376 0.378 Q 1.482 0.276 1.638 0.276 Q 1.745 0.276 1.877 0.332 L 1.877 0.437 Q 1.757 0.369 1.643 0.369 Q 1.526 0.369 1.448 0.443 Q 1.371 0.517 1.371 0.628 Q 1.371 0.74 1.447 0.813 Q 1.523 0.885 1.642 0.885 Q 1.766 0.885 1.884 0.809 Z M 2.46 0.285 L 2.558 0.285 L 2.558 0.967 L 2.46 0.967 L 2.46 0.67 L 2.077 0.67 L 2.077 0.967 L 1.979 0.967 L 1.979 0.285 L 2.077 0.285 L 2.077 0.58 L 2.46 0.58 Z M 2.684 0.285 L 2.782 0.285 L 2.782 0.967 L 2.684 0.967 Z M 3.34 0.285 L 3.437 0.285 L 3.149 0.97 L 3.127 0.97 L 2.833 0.285 L 2.931 0.285 L 3.136 0.764 Z M 3.487 0.285 L 3.874 0.285 L 3.874 0.372 L 3.585 0.372 L 3.585 0.58 L 3.864 0.58 L 3.864 0.667 L 3.585 0.667 L 3.585 0.879 L 3.883 0.879 L 3.883 0.966 L 3.487 0.966 Z M 4.131 0.681 L 4.057 0.636 Q 3.987 0.593 3.958 0.552 Q 3.928 0.511 3.928 0.457 Q 3.928 0.377 3.984 0.326 Q 4.04 0.276 4.129 0.276 Q 4.215 0.276 4.286 0.324 L 4.286 0.435 Q 4.212 0.364 4.127 0.364 Q 4.079 0.364 4.049 0.386 Q 4.018 0.408 4.018 0.443 Q 4.018 0.474 4.04 0.501 Q 4.063 0.528 4.113 0.557 L 4.188 0.601 Q 4.313 0.675 4.313 0.79 Q 4.313 0.872 4.258 0.924 Q 4.203 0.975 4.115 0.975 Q 4.014 0.975 3.931 0.913 L 3.931 0.789 Q 4.01 0.889 4.114 0.889 Q 4.16 0.889 4.19 0.863 Q 4.221 0.838 4.221 0.799 Q 4.221 0.737 4.131 0.681 Z" transform="matrix(30, 0, 0, -30, 291.3638, 69.088898)" style="fill: rgb(41, 43, 43); text-wrap-mode: nowrap;"/><path d="M 0.715 -0.482 C 0.71 -0.487 0.704 -0.49 0.697 -0.49 C 0.684 -0.49 0.675 -0.481 0.675 -0.468 C 0.675 -0.464 0.677 -0.46 0.68 -0.455 C 0.693 -0.434 0.702 -0.412 0.702 -0.386 C 0.702 -0.37 0.698 -0.33 0.659 -0.298 C 0.634 -0.377 0.567 -0.422 0.498 -0.422 C 0.441 -0.422 0.396 -0.382 0.396 -0.333 C 0.396 -0.265 0.458 -0.219 0.552 -0.219 C 0.578 -0.219 0.604 -0.223 0.625 -0.231 C 0.624 -0.133 0.541 -0.03 0.359 -0.03 C 0.197 -0.03 0.09 -0.128 0.09 -0.255 C 0.09 -0.326 0.115 -0.398 0.188 -0.44 C 0.22 -0.379 0.277 -0.359 0.318 -0.359 C 0.356 -0.359 0.395 -0.382 0.395 -0.428 C 0.395 -0.468 0.361 -0.508 0.279 -0.508 C 0.261 -0.508 0.234 -0.504 0.213 -0.495 C 0.211 -0.505 0.211 -0.516 0.211 -0.526 C 0.211 -0.589 0.251 -0.621 0.29 -0.621 C 0.31 -0.621 0.332 -0.611 0.336 -0.59 C 0.338 -0.58 0.346 -0.572 0.357 -0.572 C 0.37 -0.572 0.38 -0.582 0.38 -0.594 C 0.38 -0.613 0.36 -0.662 0.29 -0.662 C 0.229 -0.662 0.166 -0.611 0.166 -0.526 C 0.166 -0.509 0.168 -0.493 0.173 -0.478 C 0.106 -0.443 0.045 -0.374 0.045 -0.255 C 0.045 -0.107 0.167 0.011 0.359 0.011 C 0.576 0.011 0.678 -0.12 0.668 -0.251 C 0.716 -0.281 0.746 -0.33 0.746 -0.385 C 0.746 -0.418 0.735 -0.452 0.715 -0.482 Z M 0.351 -0.428 C 0.351 -0.408 0.332 -0.4 0.318 -0.4 C 0.293 -0.4 0.25 -0.415 0.225 -0.457 C 0.242 -0.464 0.265 -0.467 0.279 -0.467 C 0.325 -0.467 0.351 -0.448 0.351 -0.428 Z M 0.441 -0.333 C 0.441 -0.358 0.463 -0.381 0.499 -0.381 C 0.557 -0.381 0.606 -0.341 0.624 -0.273 C 0.602 -0.264 0.576 -0.26 0.552 -0.26 C 0.497 -0.26 0.441 -0.283 0.441 -0.333 Z" transform="matrix(48, 0, 0, -48, 422.164612, 25.0889)" style="fill: rgb(41, 43, 43); text-wrap-mode: nowrap;"/><path d="M 0.075 -0.682 L 0.173 -0.682 L 0.173 -0.089 L 0.48 -0.089 L 0.48 0 L 0.075 0 Z M 0.541 -0.682 L 0.639 -0.682 L 0.639 0 L 0.541 0 Z M 0.996 0 L 0.765 0 L 0.765 -0.682 L 0.944 -0.682 Q 1.028 -0.682 1.076 -0.659 Q 1.123 -0.637 1.148 -0.597 Q 1.173 -0.557 1.173 -0.505 Q 1.173 -0.404 1.069 -0.361 Q 1.144 -0.347 1.188 -0.299 Q 1.232 -0.252 1.232 -0.186 Q 1.232 -0.134 1.205 -0.093 Q 1.178 -0.052 1.126 -0.026 Q 1.074 0 0.996 0 Z M 0.947 -0.595 L 0.863 -0.595 L 0.863 -0.39 L 0.928 -0.39 Q 1.006 -0.39 1.039 -0.42 Q 1.072 -0.45 1.072 -0.497 Q 1.072 -0.595 0.947 -0.595 Z M 0.954 -0.303 L 0.863 -0.303 L 0.863 -0.087 L 0.959 -0.087 Q 1.039 -0.087 1.068 -0.099 Q 1.096 -0.112 1.114 -0.138 Q 1.131 -0.165 1.131 -0.195 Q 1.131 -0.226 1.113 -0.252 Q 1.094 -0.278 1.061 -0.291 Q 1.027 -0.303 0.954 -0.303 Z M 1.306 0 L 1.306 -0.682 L 1.477 -0.682 Q 1.581 -0.682 1.641 -0.631 Q 1.702 -0.58 1.702 -0.492 Q 1.702 -0.433 1.672 -0.389 Q 1.643 -0.346 1.587 -0.324 Q 1.62 -0.303 1.651 -0.266 Q 1.682 -0.229 1.739 -0.136 Q 1.774 -0.078 1.796 -0.049 L 1.832 0 L 1.716 0 L 1.686 -0.045 Q 1.685 -0.047 1.68 -0.053 L 1.661 -0.08 L 1.631 -0.13 L 1.598 -0.183 Q 1.568 -0.225 1.543 -0.25 Q 1.518 -0.275 1.497 -0.286 Q 1.477 -0.297 1.429 -0.297 L 1.404 -0.297 L 1.404 0 Z M 1.433 -0.599 L 1.404 -0.599 L 1.404 -0.384 L 1.441 -0.384 Q 1.515 -0.384 1.543 -0.396 Q 1.57 -0.409 1.586 -0.435 Q 1.601 -0.46 1.601 -0.493 Q 1.601 -0.525 1.584 -0.552 Q 1.567 -0.578 1.536 -0.588 Q 1.505 -0.599 1.433 -0.599 Z M 2.1 -0.686 L 2.169 -0.686 L 2.474 0 L 2.374 0 L 2.283 -0.202 L 1.993 -0.202 L 1.907 0 L 1.807 0 Z M 2.243 -0.289 L 2.133 -0.536 L 2.031 -0.289 Z M 2.527 0 L 2.527 -0.682 L 2.698 -0.682 Q 2.802 -0.682 2.862 -0.631 Q 2.923 -0.58 2.923 -0.492 Q 2.923 -0.433 2.893 -0.389 Q 2.864 -0.346 2.808 -0.324 Q 2.841 -0.303 2.872 -0.266 Q 2.903 -0.229 2.96 -0.136 Q 2.995 -0.078 3.017 -0.049 L 3.053 0 L 2.937 0 L 2.907 -0.045 Q 2.906 -0.047 2.901 -0.053 L 2.882 -0.08 L 2.852 -0.13 L 2.819 -0.183 Q 2.789 -0.225 2.764 -0.25 Q 2.739 -0.275 2.718 -0.286 Q 2.698 -0.297 2.65 -0.297 L 2.625 -0.297 L 2.625 0 Z M 2.654 -0.599 L 2.625 -0.599 L 2.625 -0.384 L 2.662 -0.384 Q 2.736 -0.384 2.764 -0.396 Q 2.791 -0.409 2.807 -0.435 Q 2.822 -0.46 2.822 -0.493 Q 2.822 -0.525 2.805 -0.552 Q 2.788 -0.578 2.757 -0.588 Q 2.726 -0.599 2.654 -0.599 Z M 3.104 -0.682 L 3.202 -0.682 L 3.202 0 L 3.104 0 Z M 3.328 -0.682 L 3.715 -0.682 L 3.715 -0.595 L 3.426 -0.595 L 3.426 -0.387 L 3.705 -0.387 L 3.705 -0.3 L 3.426 -0.3 L 3.426 -0.088 L 3.724 -0.088 L 3.724 -0.001 L 3.328 -0.001 Z M 3.972 -0.286 L 3.898 -0.331 Q 3.828 -0.374 3.799 -0.415 Q 3.769 -0.456 3.769 -0.51 Q 3.769 -0.59 3.825 -0.641 Q 3.881 -0.691 3.97 -0.691 Q 4.056 -0.691 4.127 -0.643 L 4.127 -0.532 Q 4.053 -0.603 3.968 -0.603 Q 3.92 -0.603 3.89 -0.581 Q 3.859 -0.559 3.859 -0.524 Q 3.859 -0.493 3.881 -0.466 Q 3.904 -0.439 3.954 -0.41 L 4.029 -0.366 Q 4.154 -0.292 4.154 -0.177 Q 4.154 -0.095 4.099 -0.043 Q 4.044 0.008 3.956 0.008 Q 3.855 0.008 3.772 -0.054 L 3.772 -0.178 Q 3.851 -0.078 3.955 -0.078 Q 4.001 -0.078 4.031 -0.104 Q 4.062 -0.129 4.062 -0.168 Q 4.062 -0.23 3.972 -0.286 Z M 4.489 -0.682 L 4.587 -0.682 L 4.587 -0.089 L 4.894 -0.089 L 4.894 0 L 4.489 0 Z M 5.172 -0.686 L 5.241 -0.686 L 5.546 0 L 5.446 0 L 5.355 -0.202 L 5.065 -0.202 L 4.979 0 L 4.879 0 Z M 5.315 -0.289 L 5.205 -0.536 L 5.103 -0.289 Z M 5.827 0 L 5.596 0 L 5.596 -0.682 L 5.775 -0.682 Q 5.859 -0.682 5.907 -0.659 Q 5.954 -0.637 5.979 -0.597 Q 6.004 -0.557 6.004 -0.505 Q 6.004 -0.404 5.9 -0.361 Q 5.975 -0.347 6.019 -0.299 Q 6.063 -0.252 6.063 -0.186 Q 6.063 -0.134 6.036 -0.093 Q 6.009 -0.052 5.957 -0.026 Q 5.905 0 5.827 0 Z M 5.778 -0.595 L 5.694 -0.595 L 5.694 -0.39 L 5.759 -0.39 Q 5.837 -0.39 5.87 -0.42 Q 5.903 -0.45 5.903 -0.497 Q 5.903 -0.595 5.778 -0.595 Z M 5.785 -0.303 L 5.694 -0.303 L 5.694 -0.087 L 5.79 -0.087 Q 5.87 -0.087 5.899 -0.099 Q 5.927 -0.112 5.945 -0.138 Q 5.962 -0.165 5.962 -0.195 Q 5.962 -0.226 5.944 -0.252 Q 5.925 -0.278 5.892 -0.291 Q 5.858 -0.303 5.785 -0.303 Z" transform="matrix(30, 0, 0, -30, 460.3237, 40.088902)" style="fill: rgb(41, 43, 43); text-wrap-mode: nowrap;"/></g></g></g></svg>