<?xml version="1.0" encoding="utf-8"?>
<svg xmlns="http://www.w3.org/2000/svg" viewBox="119.182 234.75 208.228 80.1135" width="208.228px" height="80.1135px"><g id="object-2"><path d="M 138.102 299.078 C 134.347 299.078 131.047 298.169 128.202 296.35 C 125.357 294.531 123.142 291.935 121.558 288.562 C 119.974 285.189 119.182 281.214 119.182 276.638 C 119.182 272.003 119.974 268.029 121.558 264.714 C 123.142 261.399 125.357 258.833 128.202 257.014 C 131.047 255.195 134.347 254.286 138.102 254.286 C 141.681 254.286 144.805 255.166 147.474 256.926 C 149.411 258.203 150.892 259.774 151.918 261.638 L 151.918 240.998 C 151.918 239.179 152.387 237.801 153.326 236.862 C 154.265 235.923 155.614 235.454 157.374 235.454 C 159.134 235.454 160.498 235.923 161.466 236.862 C 162.434 237.801 162.918 239.179 162.918 240.998 L 162.918 293.27 C 162.918 295.089 162.449 296.482 161.51 297.45 C 160.571 298.418 159.222 298.902 157.462 298.902 C 155.702 298.902 154.353 298.418 153.414 297.45 C 152.475 296.482 152.006 295.089 152.006 293.27 L 152.006 291.493 C 151.006 293.428 149.539 295.047 147.606 296.35 C 144.907 298.169 141.739 299.078 138.102 299.078 Z M 141.182 290.718 C 143.353 290.718 145.259 290.19 146.902 289.134 C 148.545 288.078 149.821 286.509 150.73 284.426 C 151.639 282.343 152.094 279.747 152.094 276.638 C 152.094 271.945 151.097 268.439 149.102 266.122 C 147.107 263.805 144.467 262.646 141.182 262.646 C 139.011 262.646 137.105 263.159 135.462 264.186 C 133.819 265.213 132.543 266.767 131.634 268.85 C 130.725 270.933 130.27 273.529 130.27 276.638 C 130.27 281.273 131.267 284.778 133.262 287.154 C 135.257 289.53 137.897 290.718 141.182 290.718 Z M 175.822 298.814 C 174.062 298.814 172.713 298.286 171.774 297.23 C 170.835 296.174 170.366 294.707 170.366 292.83 L 170.366 260.534 C 170.366 258.598 170.835 257.117 171.774 256.09 C 172.713 255.063 174.062 254.55 175.822 254.55 C 177.582 254.55 178.946 255.063 179.914 256.09 C 180.882 257.117 181.366 258.598 181.366 260.534 L 181.366 292.83 C 181.366 294.707 180.897 296.174 179.958 297.23 C 179.019 298.286 177.641 298.814 175.822 298.814 Z M 175.822 246.366 C 173.769 246.366 172.17 245.853 171.026 244.826 C 169.882 243.799 169.31 242.377 169.31 240.558 C 169.31 238.681 169.882 237.243 171.026 236.246 C 172.17 235.249 173.769 234.75 175.822 234.75 C 177.934 234.75 179.547 235.249 180.662 236.246 C 181.777 237.243 182.334 238.681 182.334 240.558 C 182.334 242.377 181.777 243.799 180.662 244.826 C 179.547 245.853 177.934 246.366 175.822 246.366 Z M 206.24 298.902 C 204.773 298.902 203.497 298.521 202.412 297.758 C 201.327 296.995 200.432 295.822 199.728 294.238 L 185.736 261.766 C 185.208 260.475 185.017 259.273 185.164 258.158 C 185.311 257.043 185.839 256.149 186.748 255.474 C 187.657 254.799 188.904 254.462 190.488 254.462 C 191.837 254.462 192.923 254.77 193.744 255.386 C 194.565 256.002 195.299 257.161 195.944 258.862 L 206.521 285.188 L 217.416 258.774 C 218.061 257.131 218.809 256.002 219.66 255.386 C 220.511 254.77 221.669 254.462 223.136 254.462 C 224.427 254.462 225.453 254.799 226.216 255.474 C 226.979 256.149 227.448 257.029 227.624 258.114 C 227.8 259.199 227.595 260.387 227.008 261.678 L 212.752 294.238 C 212.107 295.822 211.241 296.995 210.156 297.758 C 209.071 298.521 207.765 298.902 206.24 298.902 Z M 244.482 299.078 C 241.373 299.078 238.601 298.477 236.166 297.274 C 233.731 296.071 231.825 294.443 230.446 292.39 C 229.067 290.337 228.378 288.019 228.378 285.438 C 228.378 282.27 229.199 279.762 230.842 277.914 C 232.485 276.066 235.154 274.731 238.85 273.91 C 242.546 273.089 247.503 272.678 253.722 272.678 L 256.802 272.678 L 256.802 270.83 C 256.802 267.897 256.157 265.785 254.866 264.494 C 253.575 263.203 251.405 262.558 248.354 262.558 C 246.653 262.558 244.819 262.763 242.854 263.174 C 240.889 263.585 238.821 264.289 236.65 265.286 C 235.535 265.814 234.553 265.961 233.702 265.726 C 232.851 265.491 232.191 265.007 231.722 264.274 C 231.253 263.541 231.018 262.734 231.018 261.854 C 231.018 260.974 231.253 260.109 231.722 259.258 C 232.191 258.407 232.983 257.777 234.098 257.366 C 236.797 256.251 239.393 255.459 241.886 254.99 C 244.379 254.521 246.653 254.286 248.706 254.286 C 252.93 254.286 256.406 254.931 259.134 256.222 C 261.862 257.513 263.901 259.463 265.25 262.074 C 266.599 264.685 267.274 268.043 267.274 272.15 L 267.274 286.793 C 266.444 286.547 265.562 286.422 264.65 286.439 C 261.235 286.503 258.321 288.536 256.978 291.431 L 256.978 291.429 C 256.976 291.434 256.974 291.439 256.972 291.445 C 256.904 291.592 256.84 291.741 256.781 291.892 C 256.376 292.789 255.87 293.615 255.263 294.37 C 254.06 295.866 252.55 297.025 250.731 297.846 C 248.912 298.667 246.83 299.078 244.483 299.078 Z M 253.81 279.014 C 250.173 279.014 247.269 279.19 245.098 279.542 C 242.927 279.894 241.387 280.495 240.478 281.346 C 239.569 282.197 239.114 283.385 239.114 284.91 C 239.114 286.846 239.789 288.43 241.138 289.662 C 242.487 290.894 244.365 291.51 246.77 291.51 C 248.706 291.51 250.422 291.055 251.918 290.146 C 253.414 289.237 254.602 287.99 255.482 286.406 C 256.362 284.822 256.802 283.003 256.802 280.95 L 256.802 279.014 Z" style="fill: rgb(51, 51, 51); text-wrap-mode: nowrap;" id="object-0"/><path d="M 269.183 314.83 Q 267.247 315.006 266.015 314.258 Q 264.783 313.51 264.299 312.366 Q 263.815 311.222 263.991 309.99 Q 264.167 308.758 265.003 307.834 Q 265.839 306.91 267.247 306.822 Q 271.207 306.47 273.011 304.578 Q 274.815 302.686 274.815 298.814 L 274.815 260.006 Q 274.815 257.278 276.267 255.87 Q 277.719 254.462 280.359 254.462 Q 282.999 254.462 284.407 255.87 Q 285.815 257.278 285.815 260.006 L 285.815 297.846 Q 285.815 303.478 284.011 307.086 Q 282.207 310.694 278.555 312.542 Q 274.903 314.39 269.183 314.83 Z M 280.271 246.366 Q 277.191 246.366 275.475 244.826 Q 273.759 243.286 273.759 240.558 Q 273.759 237.742 275.475 236.246 Q 277.191 234.75 280.271 234.75 Q 283.439 234.75 285.111 236.246 Q 286.783 237.742 286.783 240.558 Q 286.783 243.286 285.111 244.826 Q 283.439 246.366 280.271 246.366 Z M 309.018 299.078 Q 305.234 299.078 301.01 298.286 Q 296.786 297.494 293.442 295.558 Q 292.034 294.678 291.462 293.49 Q 290.89 292.302 291.022 291.114 Q 291.154 289.926 291.902 289.046 Q 292.65 288.166 293.838 287.902 Q 295.026 287.638 296.434 288.342 Q 299.954 290.014 303.034 290.674 Q 306.114 291.334 309.106 291.334 Q 313.33 291.334 315.398 289.882 Q 317.466 288.43 317.466 286.054 Q 317.466 284.03 316.102 282.93 Q 314.738 281.83 312.01 281.302 L 303.21 279.63 Q 297.754 278.574 294.894 275.626 Q 292.034 272.678 292.034 268.014 Q 292.034 263.79 294.366 260.71 Q 296.698 257.63 300.834 255.958 Q 304.97 254.286 310.338 254.286 Q 314.21 254.286 317.598 255.122 Q 320.986 255.958 324.154 257.718 Q 325.474 258.422 325.958 259.566 Q 326.442 260.71 326.178 261.898 Q 325.914 263.086 325.122 264.01 Q 324.33 264.934 323.142 265.154 Q 321.954 265.374 320.458 264.67 Q 317.73 263.262 315.222 262.646 Q 312.714 262.03 310.426 262.03 Q 306.114 262.03 304.046 263.526 Q 301.978 265.022 301.978 267.486 Q 301.978 269.334 303.21 270.566 Q 304.442 271.798 306.994 272.238 L 315.794 273.91 Q 321.514 274.966 324.462 277.782 Q 327.41 280.598 327.41 285.35 Q 327.41 291.774 322.394 295.426 Q 317.378 299.078 309.018 299.078 Z" style="fill: rgb(83, 100, 243); text-wrap-mode: nowrap;" id="object-1"/></g></svg>